<mxfile host="app.diagrams.net" modified="2024-01-09T23:21:14.686Z" agent="Mozilla/5.0 (Windows NT 10.0; Win64; x64; rv:121.0) Gecko/20100101 Firefox/121.0" version="22.1.18" etag="2uQ49rf2OnWXBLF9kTr9" type="github">
  <diagram name="Page-1" id="TE2uM-tnXrGPu-JmCnRK">
    <mxGraphModel>
      <root>
        <mxCell id="0" />
        <mxCell id="1" parent="0" />
      </root>
    </mxGraphModel>
  </diagram>
</mxfile>
